<?xml version="1.0" encoding="UTF-8" standalone="no"?>
<svg
   width="17.15057"
   height="17.379246"
   viewBox="0 0 56.129138 68.399998"
   class="blog-logo"
   version="1.1"
   id="svg33"
   xmlns="http://www.w3.org/2000/svg"
   xmlns:svg="http://www.w3.org/2000/svg">
  <defs
     id="defs37" />
  <g
     id="blog-logo__miniature-background"
     featurekey="symbolContainer"
     transform="matrix(0.9,0,0,0.9,-5.5576944,0)"
     fill="#3dd2cc">
    <rect
       width="75"
       height="76"
       rx="10"
       ry="10"
       id="rect24"
       x="0"
       y="0"
       style="opacity:1;fill:#c70042;fill-opacity:1" />
  </g>
  <g
     id="blog-logo__miniature-foreground"
     featurekey="monogramFeature-0"
     transform="matrix(0.86355504,0,0,0.86355504,7.8516704,0.064502)"
     fill="#111111"
     style="fill:#ffffff;fill-opacity:1">
    <path
       d="m 43.449,56.04 c 0.68004,1.0538 -3.1099,4.4891 -4.1745,3.9 -7.0536,-5.3261 -14.686,-9.5568 -22.551,-12.625 -0.59426,3.7689 -1.2539,7.5216 -2.0071,11.25 -0.30761,1.4173 -5.4113,1.0837 -5.7017,-0.33879 -0.55043,-6.4404 -1.357,-12.845 -2.3542,-19.191 -1.0042,-6.3426 -2.2054,-12.634 -3.6539,-18.763 -0.39533,-0.96798 17.003,-2.5614 16.782,-1.4269 -0.15316,2.8893 -0.36797,5.7538 -0.61842,8.6052 5.2333,-1.936 10.364,-4.5272 15.206,-7.7904 0.84276,-0.53707 4.571,2.9656 4.0759,4.0015 -3.1861,4.7732 -6.9558,9.2856 -11.249,13.414 6.2532,5.7526 11.705,12.145 16.245,18.964 z"
       id="path27"
       style="fill:#ffffff;fill-opacity:1" />
  </g>
</svg>
